<svg width="121" height="30" viewBox="0 0 121 30" fill="none" xmlns="http://www.w3.org/2000/svg">
<g filter="url(#filter0_d_474_625)">
<rect x="29.2134" y="13.5627" width="7.41883" height="7.41883" transform="rotate(-45 29.2134 13.5627)" fill="#5E96FC"/>
<rect x="34.5303" y="8.24597" width="7.41883" height="7.41883" transform="rotate(-45 34.5303 8.24597)" fill="url(#paint0_linear_474_625)"/>
<rect x="3" y="18.8794" width="7.41883" height="7.41883" transform="rotate(-45 3 18.8794)" fill="#B8D2FF"/>
<rect x="8.31641" y="13.5627" width="7.41883" height="7.41883" transform="rotate(-45 8.31641 13.5627)" fill="url(#paint1_linear_474_625)"/>
<rect x="18.7646" y="13.5627" width="7.41883" height="7.41883" transform="rotate(-45 18.7646 13.5627)" fill="url(#paint2_linear_474_625)"/>
<path d="M29.2439 13.7264L34.3252 18.8269H24.1392L29.2439 13.7264Z" fill="url(#paint3_linear_474_625)"/>
<path d="M18.7799 13.4327L23.865 8.31677H13.6641L18.7799 13.4327Z" fill="url(#paint4_linear_474_625)"/>
<path d="M49.4087 10.5549H51.6548V12.1174C51.798 11.844 51.9836 11.5933 52.2114 11.3655C52.4458 11.1376 52.7095 10.9423 53.0024 10.7795C53.3019 10.6103 53.6274 10.4801 53.979 10.3889C54.3306 10.2978 54.6984 10.2522 55.0825 10.2522C56.4302 10.2522 57.4393 10.6819 58.1099 11.5413C58.7804 12.3941 59.1157 13.6083 59.1157 15.1838V20.594H56.7524V15.2327C56.7524 14.7314 56.6971 14.3049 56.5864 13.9534C56.4823 13.6018 56.3293 13.3121 56.1274 13.0842C55.9256 12.8564 55.6815 12.6903 55.395 12.5862C55.1086 12.482 54.7863 12.4299 54.4282 12.4299C54.0832 12.4299 53.7479 12.4983 53.4224 12.635C53.1034 12.7652 52.8201 12.9605 52.5728 13.2209C52.3319 13.4749 52.1366 13.7906 51.9868 14.1682C51.8436 14.5458 51.772 14.9788 51.772 15.467V20.594H49.4087V10.5549ZM62.9731 8.99243C62.7453 8.99243 62.5402 8.95662 62.3579 8.88501C62.1821 8.8134 62.0291 8.71899 61.8989 8.60181C61.7752 8.47811 61.6808 8.33488 61.6157 8.17212C61.5506 8.00285 61.5181 7.82381 61.5181 7.63501C61.5181 7.45272 61.5506 7.28019 61.6157 7.11743C61.6808 6.95467 61.7752 6.81144 61.8989 6.68774C62.0291 6.56405 62.1821 6.46639 62.3579 6.39478C62.5402 6.32316 62.7485 6.28735 62.9829 6.28735C63.2173 6.28735 63.4256 6.32316 63.6079 6.39478C63.7967 6.46639 63.953 6.56405 64.0767 6.68774C64.2069 6.81144 64.3045 6.95467 64.3696 7.11743C64.4347 7.28019 64.4673 7.45272 64.4673 7.63501C64.4673 7.82381 64.4347 8.00285 64.3696 8.17212C64.3045 8.33488 64.2069 8.47811 64.0767 8.60181C63.953 8.71899 63.7967 8.8134 63.6079 8.88501C63.4256 8.95662 63.214 8.99243 62.9731 8.99243ZM61.811 10.5549H64.1743V20.594H61.811V10.5549ZM67.7388 12.5764H65.7368V10.5549H67.7388V9.97876C67.7388 9.59465 67.7941 9.21053 67.9048 8.82642C68.0155 8.43579 68.1945 8.08423 68.4419 7.77173C68.6958 7.45923 69.0181 7.20532 69.4087 7.01001C69.8058 6.8147 70.2876 6.71704 70.854 6.71704H72.7778V8.67993H71.4497C71.2284 8.67993 71.033 8.72225 70.8638 8.80688C70.701 8.88501 70.561 8.99243 70.4438 9.12915C70.3332 9.26587 70.2485 9.42537 70.1899 9.60767C70.1313 9.78345 70.1021 9.96899 70.1021 10.1643V10.5549H72.729V12.5764H70.1021V20.594H67.7388V12.5764ZM78.813 20.594C78.4354 20.594 78.048 20.5517 77.6509 20.467C77.2603 20.3759 76.9022 20.1969 76.5767 19.9299C76.2576 19.6565 75.994 19.2691 75.7856 18.7678C75.5838 18.2665 75.4829 17.6025 75.4829 16.7756V12.5862H73.4028V10.5549H75.4829V7.61548L77.8462 7.59595V10.5549H80.854V12.5862H77.8462V16.8831C77.8462 17.2346 77.8853 17.5243 77.9634 17.7522C78.048 17.9736 78.1554 18.1526 78.2856 18.2893C78.4224 18.4195 78.5786 18.5107 78.7544 18.5627C78.9302 18.6083 79.1125 18.6311 79.3013 18.6311H80.854V20.594H78.813ZM81.7036 22.0686H83.3735C83.6405 22.0686 83.8683 22.0361 84.0571 21.9709C84.2459 21.9124 84.4087 21.8147 84.5454 21.678C84.6886 21.5478 84.8156 21.3818 84.9263 21.1799C85.0369 20.9781 85.1444 20.7405 85.2485 20.467L85.3657 20.1252L81.5181 10.5549H84.0083L86.3716 16.6292L86.6255 17.6643L86.8892 16.6389L89.2134 10.5647L91.7329 10.5549L87.8169 20.3694C87.5239 21.1181 87.231 21.7301 86.938 22.2053C86.6515 22.6806 86.3358 23.0517 85.9907 23.3186C85.6522 23.5855 85.2746 23.7678 84.8579 23.8655C84.4412 23.9696 83.953 24.0217 83.3931 24.0217H81.7036V22.0686ZM102.114 20.8967C101.437 20.8967 100.808 20.76 100.229 20.4866C99.6496 20.2066 99.1483 19.8258 98.7251 19.344C98.3084 18.8622 97.9797 18.2991 97.7388 17.6545C97.5044 17.0035 97.3872 16.3101 97.3872 15.5745C97.3872 14.8388 97.5076 14.1487 97.7485 13.5042C97.9894 12.8596 98.3182 12.2965 98.7349 11.8147C99.158 11.3329 99.6561 10.9521 100.229 10.6721C100.808 10.3922 101.433 10.2522 102.104 10.2522C102.931 10.2522 103.66 10.428 104.292 10.7795C104.923 11.1311 105.402 11.6226 105.727 12.2542V10.5549H107.973V20.594H105.727V18.9045C105.395 19.5361 104.913 20.0276 104.282 20.3792C103.657 20.7242 102.934 20.8967 102.114 20.8967ZM102.68 18.7092C103.09 18.7092 103.474 18.6311 103.833 18.4749C104.197 18.3121 104.51 18.0907 104.77 17.8108C105.037 17.5308 105.245 17.1988 105.395 16.8147C105.551 16.4306 105.629 16.0172 105.629 15.5745C105.629 15.1383 105.551 14.7314 105.395 14.3538C105.245 13.9696 105.037 13.6376 104.77 13.3577C104.503 13.0712 104.191 12.8466 103.833 12.6838C103.474 12.5211 103.09 12.4397 102.68 12.4397C102.277 12.4397 101.896 12.5146 101.538 12.6643C101.18 12.814 100.867 13.0256 100.6 13.2991C100.333 13.5725 100.122 13.9045 99.9653 14.2952C99.8091 14.6793 99.731 15.1057 99.731 15.5745C99.731 16.0627 99.8091 16.5022 99.9653 16.8928C100.128 17.2769 100.343 17.6057 100.61 17.8792C100.877 18.1461 101.189 18.3512 101.547 18.4944C101.905 18.6376 102.283 18.7092 102.68 18.7092ZM111.918 8.99243C111.691 8.99243 111.486 8.95662 111.303 8.88501C111.127 8.8134 110.974 8.71899 110.844 8.60181C110.721 8.47811 110.626 8.33488 110.561 8.17212C110.496 8.00285 110.463 7.82381 110.463 7.63501C110.463 7.45272 110.496 7.28019 110.561 7.11743C110.626 6.95467 110.721 6.81144 110.844 6.68774C110.974 6.56405 111.127 6.46639 111.303 6.39478C111.486 6.32316 111.694 6.28735 111.928 6.28735C112.163 6.28735 112.371 6.32316 112.553 6.39478C112.742 6.46639 112.898 6.56405 113.022 6.68774C113.152 6.81144 113.25 6.95467 113.315 7.11743C113.38 7.28019 113.413 7.45272 113.413 7.63501C113.413 7.82381 113.38 8.00285 113.315 8.17212C113.25 8.33488 113.152 8.47811 113.022 8.60181C112.898 8.71899 112.742 8.8134 112.553 8.88501C112.371 8.95662 112.159 8.99243 111.918 8.99243ZM110.756 10.5549H113.12V20.594H110.756V10.5549Z" fill="#010101"/>
<g clip-path="url(#paint5_diamond_474_625_clip_path)" data-figma-skip-parse="true"><g transform="matrix(0 0.0025 -0.0025 0 112 7.53125)"><rect x="0" y="0" width="1600" height="1600" fill="url(#paint5_diamond_474_625)" opacity="1" shape-rendering="crispEdges"/><rect x="0" y="0" width="1600" height="1600" transform="scale(1 -1)" fill="url(#paint5_diamond_474_625)" opacity="1" shape-rendering="crispEdges"/><rect x="0" y="0" width="1600" height="1600" transform="scale(-1 1)" fill="url(#paint5_diamond_474_625)" opacity="1" shape-rendering="crispEdges"/><rect x="0" y="0" width="1600" height="1600" transform="scale(-1)" fill="url(#paint5_diamond_474_625)" opacity="1" shape-rendering="crispEdges"/></g></g><path d="M112 3.53125C112 5.74039 113.791 7.53125 116 7.53125C113.791 7.53125 112 9.32209 112 11.5312C112 9.32209 110.209 7.53125 108 7.53125C110.209 7.53125 112 5.74039 112 3.53125Z" data-figma-gradient-fill="{&#34;type&#34;:&#34;GRADIENT_DIAMOND&#34;,&#34;stops&#34;:[{&#34;color&#34;:{&#34;r&#34;:0.36057692766189575,&#34;g&#34;:0.56755965948104858,&#34;b&#34;:1.0,&#34;a&#34;:1.0},&#34;position&#34;:0.0},{&#34;color&#34;:{&#34;r&#34;:0.11538461595773697,&#34;g&#34;:0.40173408389091492,&#34;b&#34;:1.0,&#34;a&#34;:1.0},&#34;position&#34;:0.56649637222290039}],&#34;stopsVar&#34;:[{&#34;color&#34;:{&#34;r&#34;:0.36057692766189575,&#34;g&#34;:0.56755965948104858,&#34;b&#34;:1.0,&#34;a&#34;:1.0},&#34;position&#34;:0.0},{&#34;color&#34;:{&#34;r&#34;:0.11538461595773697,&#34;g&#34;:0.40173408389091492,&#34;b&#34;:1.0,&#34;a&#34;:1.0},&#34;position&#34;:0.56649637222290039}],&#34;transform&#34;:{&#34;m00&#34;:2.3491216025357808e-13,&#34;m01&#34;:-5.0000004768371582,&#34;m02&#34;:114.50,&#34;m10&#34;:5.0000004768371582,&#34;m11&#34;:3.6136222594969347e-13,&#34;m12&#34;:5.0312495231628418},&#34;opacity&#34;:1.0,&#34;blendMode&#34;:&#34;NORMAL&#34;,&#34;visible&#34;:true}"/>
</g>
<defs>
<filter id="filter0_d_474_625" x="0" y="0" width="121" height="29.1254" filterUnits="userSpaceOnUse" color-interpolation-filters="sRGB">
<feFlood flood-opacity="0" result="BackgroundImageFix"/>
<feColorMatrix in="SourceAlpha" type="matrix" values="0 0 0 0 0 0 0 0 0 0 0 0 0 0 0 0 0 0 127 0" result="hardAlpha"/>
<feOffset dx="1" dy="1"/>
<feGaussianBlur stdDeviation="2"/>
<feComposite in2="hardAlpha" operator="out"/>
<feColorMatrix type="matrix" values="0 0 0 0 0.262745 0 0 0 0 0.482353 0 0 0 0 0.941176 0 0 0 0.3 0"/>
<feBlend mode="normal" in2="BackgroundImageFix" result="effect1_dropShadow_474_625"/>
<feBlend mode="normal" in="SourceGraphic" in2="effect1_dropShadow_474_625" result="shape"/>
</filter>
<clipPath id="paint5_diamond_474_625_clip_path"><path d="M112 3.53125C112 5.74039 113.791 7.53125 116 7.53125C113.791 7.53125 112 9.32209 112 11.5312C112 9.32209 110.209 7.53125 108 7.53125C110.209 7.53125 112 5.74039 112 3.53125Z"/></clipPath><linearGradient id="paint0_linear_474_625" x1="49.1673" y1="11.9554" x2="30.0885" y2="11.9554" gradientUnits="userSpaceOnUse">
<stop stop-color="#437BF0"/>
<stop offset="1" stop-color="#5384EA"/>
</linearGradient>
<linearGradient id="paint1_linear_474_625" x1="27.5415" y1="17.192" x2="3.63821" y2="17.192" gradientUnits="userSpaceOnUse">
<stop offset="0.649038" stop-color="#89AFFF"/>
<stop offset="0.889423" stop-color="#B8D2FF"/>
</linearGradient>
<linearGradient id="paint2_linear_474_625" x1="22.2685" y1="0.37428" x2="22.1574" y2="30.3018" gradientUnits="userSpaceOnUse">
<stop offset="0.501577" stop-color="#83ABFF"/>
<stop offset="0.638066" stop-color="#5C91FF"/>
</linearGradient>
<linearGradient id="paint3_linear_474_625" x1="37.3475" y1="10.4844" x2="25.9138" y2="21.9181" gradientUnits="userSpaceOnUse">
<stop offset="0.548077" stop-color="#83ABFF"/>
<stop offset="0.785423" stop-color="#5B90FF"/>
</linearGradient>
<linearGradient id="paint4_linear_474_625" x1="12.7194" y1="0.723452" x2="26.3099" y2="17.3717" gradientUnits="userSpaceOnUse">
<stop offset="0.500527" stop-color="#6199FF"/>
<stop offset="0.658327" stop-color="#9ABBFF"/>
</linearGradient>
<linearGradient id="paint5_diamond_474_625" x1="0" y1="0" x2="500" y2="500" gradientUnits="userSpaceOnUse">
<stop stop-color="#5C91FF"/>
<stop offset="0.566496" stop-color="#1D66FF"/>
</linearGradient>
</defs>
</svg>
